<svg width="281" height="36" viewBox="0 0 281 36" fill="none" xmlns="http://www.w3.org/2000/svg">
<path d="M280.413 10.3955V25.5649L274.729 27.4611L268.874 17.0321C268.381 16.1599 266.998 16.596 267.15 17.6199L269.045 35.0458L250.098 27.4611L252.277 12.1779C252.725 9.05217 254.283 6.19281 256.667 4.12407C259.051 2.05534 262.1 0.915854 265.255 0.914551H280.413L277.419 5.4085C279.2 6.37556 280.413 8.23382 280.413 10.3955ZM244.414 4.70692H251.197C252.144 3.26582 253.319 1.99538 254.664 0.914551H244.414C243.372 0.914551 242.519 1.76783 242.519 2.81073C242.519 3.85363 243.372 4.70692 244.414 4.70692ZM247.9 16.084H240.624C239.582 16.084 238.73 16.9373 238.73 17.9802C238.73 19.0231 239.582 19.8764 240.624 19.8764H247.35L247.9 16.084ZM242.519 12.2916H248.43L248.525 11.6469C248.677 10.5472 248.942 9.50426 249.302 8.49928H242.519C241.477 8.49928 240.624 9.35256 240.624 10.3955C240.624 11.4384 241.477 12.2916 242.519 12.2916Z" fill="white"/>
</svg>
