<svg width="281" height="37" viewBox="0 0 281 37" fill="none" xmlns="http://www.w3.org/2000/svg">
<path d="M11.6261 23.765C17.3282 23.765 21.6048 21.7059 22.4918 16.8591C23.4739 11.5371 18.9438 10.2699 16.663 9.54133C14.5722 8.87608 12.4814 8.4009 12.7032 7.26047C12.8615 6.43683 13.5902 6.24676 14.5088 6.24676C15.4592 6.24676 16.2195 6.84865 15.9977 7.98908C15.9977 7.98908 21.2247 7.98908 23.854 7.98908C24.8994 2.38198 19.2606 0.38623 15.3642 0.38623C11.7845 0.38623 5.22702 1.05148 4.18163 6.65858C3.35799 11.0619 5.86059 12.9626 11.1192 14.6416C12.7665 15.1801 13.5585 15.8137 13.4634 16.7324C13.3684 17.5243 12.3547 17.7461 11.2143 17.651C10.1055 17.5877 9.2502 17.1759 9.50362 15.687C9.50362 15.687 3.89652 15.687 1.58399 15.687C0.855384 19.6785 3.73813 23.765 11.6261 23.765Z" fill="white"/>
<path d="M44.2367 7.60894L45.4721 0.988123H26.7184L22.6002 23.1631H41.3539L42.5894 16.5106H32.2939L32.5473 15.0851H41.8608L42.9695 9.06615H33.6877L33.9411 7.60894H44.2367Z" fill="white"/>
<path d="M57.7594 8.36922C59.4067 8.33754 60.4521 9.16118 60.5471 10.5867H69.3538C70.1774 4.47276 64.7604 0.38623 57.7594 0.38623C50.315 0.38623 45.5632 4.78955 44.2961 11.4737C42.8388 19.1399 48.5093 23.765 55.0351 23.765C63.3032 23.765 67.3897 19.7101 68.9736 13.5645H60.0086C59.1216 15.1167 58.1712 15.782 56.5556 15.782C54.4649 15.782 53.1344 13.913 53.7363 11.6321C54.2748 9.57301 55.637 8.36922 57.7594 8.36922Z" fill="white"/>
<path d="M91.8391 9.12951C92.8528 3.77583 89.1781 0.988123 83.9195 0.988123C83.8244 0.988123 72.4518 0.988123 72.4518 0.988123L68.3336 23.1631H76.7601L77.8689 17.2392C78.4391 17.2392 79.7062 17.2392 80.3715 17.2392L82.2088 23.1631H91.2689L88.4178 15.3068C90.2552 13.9763 91.3322 11.9172 91.8391 9.12951ZM81.7653 7.32383C83.0008 7.32383 83.8244 7.83069 83.6027 9.12951C83.3493 10.46 82.4939 10.9035 81.1001 10.9035C80.6249 10.9035 79.7696 10.9035 79.041 10.9035L79.7062 7.32383C80.5299 7.32383 81.3535 7.32383 81.7653 7.32383Z" fill="white"/>
<path d="M113.208 7.60894L114.443 0.988123H95.6898L91.5716 23.1631H110.325L111.561 16.5106H101.265L101.519 15.0851H110.832L111.941 9.06615H102.659L102.912 7.60894H113.208Z" fill="white"/>
<path d="M137.248 0.988123H115.041L113.648 8.52761H120.585L117.861 23.1631H126.319L129.012 8.52761H135.823L137.248 0.988123Z" fill="white"/>
<path d="M160.956 0.988123L159.594 8.30587H153.226L154.589 0.988123H146.13L142.012 23.1631H150.47L151.833 15.8454H158.2L156.838 23.1631H165.264L169.382 0.988123H160.956Z" fill="white"/>
<path d="M182.251 0.38623C174.838 0.38623 169.801 4.63115 168.566 11.4104C167.045 19.5517 172.24 23.765 179.653 23.765C187.066 23.765 192.135 18.9182 193.243 13.026C194.701 5.20137 189.664 0.38623 182.251 0.38623ZM184.5 12.329C184.057 14.7366 182.409 15.8137 180.413 15.8137C178.386 15.8137 176.929 13.9446 177.341 11.8539C177.721 9.69972 179.083 8.33754 181.332 8.33754C183.55 8.33754 184.912 10.1115 184.5 12.329Z" fill="white"/>
<path d="M215.891 9.12951C216.905 3.77583 213.23 0.988123 207.972 0.988123C207.877 0.988123 196.504 0.988123 196.504 0.988123L192.386 23.1631H200.813L201.921 17.2392C202.491 17.2392 203.759 17.2392 204.424 17.2392L206.261 23.1631H215.321L212.47 15.3068C214.308 13.9763 215.385 11.9172 215.891 9.12951ZM205.818 7.32383C207.053 7.32383 207.877 7.83069 207.655 9.12951C207.402 10.46 206.546 10.9035 205.152 10.9035C204.677 10.9035 203.822 10.9035 203.093 10.9035L203.759 7.32383C204.582 7.32383 205.406 7.32383 205.818 7.32383Z" fill="white"/>
<path d="M225.784 23.765C231.486 23.765 235.763 21.7059 236.65 16.8591C237.632 11.5371 233.102 10.2699 230.821 9.54133C228.73 8.87608 226.639 8.4009 226.861 7.26047C227.02 6.43683 227.748 6.24676 228.667 6.24676C229.617 6.24676 230.378 6.84865 230.156 7.98908C230.156 7.98908 235.383 7.98908 238.012 7.98908C239.057 2.38198 233.419 0.38623 229.522 0.38623C225.942 0.38623 219.385 1.05148 218.34 6.65858C217.516 11.0619 220.019 12.9626 225.277 14.6416C226.925 15.1801 227.716 15.8137 227.621 16.7324C227.526 17.5243 226.513 17.7461 225.372 17.651C224.264 17.5877 223.408 17.1759 223.662 15.687C223.662 15.687 218.055 15.687 215.742 15.687C215.013 19.6785 217.896 23.765 225.784 23.765Z" fill="white"/>
<path d="M280.413 11.3956V26.5651L274.729 28.4612L268.874 18.0322C268.382 17.16 266.998 17.5961 267.15 18.6201L269.045 36.046L250.098 28.4612L252.277 13.178C252.725 10.0523 254.283 7.19294 256.667 5.12421C259.051 3.05547 262.1 1.91598 265.255 1.91468H280.413L277.419 6.40864C279.2 7.37569 280.413 9.23395 280.413 11.3956ZM244.414 5.70705H251.197C252.144 4.26595 253.319 2.99551 254.664 1.91468H244.414C243.372 1.91468 242.519 2.76796 242.519 3.81086C242.519 4.85377 243.372 5.70705 244.414 5.70705ZM247.9 17.0841H240.624C239.582 17.0841 238.73 17.9374 238.73 18.9803C238.73 20.0232 239.582 20.8765 240.624 20.8765H247.35L247.9 17.0841ZM242.519 13.2918H248.43L248.525 12.6471C248.677 11.5473 248.942 10.5044 249.302 9.49941H242.519C241.477 9.49941 240.624 10.3527 240.624 11.3956C240.624 12.4385 241.477 13.2918 242.519 13.2918Z" fill="white"/>
<path d="M0.712646 27.6291C0.712646 26.6234 1.52794 25.8081 2.53365 25.8081H246.47V29.4501H2.53365C1.52794 29.4501 0.712646 28.6348 0.712646 27.6291Z" fill="white"/>
</svg>
